<svg width="18" height="75" viewBox="0 0 18 75" fill="none" xmlns="http://www.w3.org/2000/svg">
<g clip-path="url(#clip0)">
<path d="M13.8667 5.72102C13.888 5.72102 13.9096 5.71925 13.9311 5.71536C14.1739 5.67183 14.4046 5.62477 14.6215 5.57487C14.8165 5.53029 14.9382 5.33602 14.8936 5.14069C14.8487 4.94571 14.6534 4.82362 14.4595 4.86857C14.2532 4.91563 14.0345 4.96057 13.803 5.00197C13.6063 5.03736 13.475 5.22561 13.5104 5.42271C13.5419 5.59788 13.6944 5.72102 13.8667 5.72102Z" fill="#377084"/>
<path d="M4.00111 5.63875C5.40736 5.92927 7.24143 6.08957 9.16538 6.08957C9.99271 6.08957 10.8084 6.05985 11.589 6.00146C11.7886 5.9866 11.9382 5.81285 11.9234 5.61327C11.9089 5.41369 11.7319 5.2672 11.5352 5.27887C10.7719 5.33584 9.97466 5.36486 9.16538 5.36486C7.2892 5.36486 5.50715 5.21022 4.14761 4.9289C3.95157 4.88821 3.75977 5.01418 3.71943 5.21058C3.67909 5.40626 3.80507 5.59806 4.00111 5.63875Z" fill="#377084"/>
<path d="M13.0503 40.4492C15.7626 38.0023 17.3182 34.504 17.3182 30.8517V2.39694C17.3182 2.00379 16.9251 0.041626 9.1652 0.041626C1.40535 0.041626 1.01221 2.00379 1.01221 2.39694V30.8517C1.01221 34.5043 2.56779 38.0023 5.28015 40.4492C6.48257 41.5334 7.17225 43.0841 7.17225 44.7033V65.9786C7.17225 67.4348 6.37924 68.7749 5.10251 69.4755L2.85795 70.708C2.35193 70.9862 2.06247 71.5368 2.12086 72.1111C2.17925 72.6858 2.57345 73.1674 3.12548 73.3379C5.10109 73.948 7.13297 74.2534 9.1652 74.253C11.1974 74.253 13.2297 73.948 15.2053 73.3379C15.757 73.167 16.1512 72.6858 16.2092 72.1111C16.2676 71.5368 15.9781 70.9858 15.4721 70.708L13.2272 69.4755C11.9512 68.7749 11.1582 67.4351 11.1582 65.9786V44.7033C11.1582 43.0841 11.8478 41.5334 13.0503 40.4492ZM9.1652 1.49105C12.6992 1.49105 14.9339 2.01866 15.6742 2.39694C14.9339 2.77522 12.6992 3.30282 9.1652 3.30282C5.63118 3.30282 3.39653 2.77522 2.65625 2.39694C3.39653 2.01866 5.63118 1.49105 9.1652 1.49105ZM12.5297 70.7459L14.7775 71.9529C11.1065 73.0877 7.22533 73.0877 3.55577 71.9784L5.79997 70.7459C7.54062 69.7908 8.62167 67.9642 8.62167 65.9786V44.7033C8.62167 42.6747 7.75754 40.7316 6.25115 39.3728C3.84276 37.2004 2.46163 34.0945 2.46163 30.8517V3.8522C3.59324 4.33805 5.60075 4.75225 9.1652 4.75225C12.7297 4.75225 14.7372 4.33805 15.8688 3.8522V30.8517C15.8688 34.0945 14.4877 37.2004 12.0796 39.3728C10.5729 40.7312 9.70874 42.6743 9.70874 44.7033V65.9786C9.70874 67.9642 10.7898 69.7912 12.5297 70.7459Z" fill="#377084"/>
<path d="M15.2648 32.0346V11.6369C15.2648 9.95925 10.9994 9.77808 9.16532 9.77808C7.33124 9.77808 3.06543 9.95925 3.06543 11.6369V32.0346C3.06543 35.3981 5.80185 38.1342 9.16532 38.1342C12.5288 38.1342 15.2648 35.3981 15.2648 32.0346ZM9.16532 11.2275C11.0641 11.2275 12.4389 11.431 13.2153 11.6369C12.4389 11.8429 11.0641 12.0463 9.16532 12.0463C7.26649 12.0463 5.89138 11.8429 5.115 11.6369C5.89138 11.431 7.26649 11.2275 9.16532 11.2275ZM9.16532 36.6847C6.60087 36.6847 4.51485 34.5987 4.51485 32.0346V12.9632C5.92575 13.425 8.01977 13.4958 9.16532 13.4958C10.3108 13.4958 12.4046 13.425 13.8154 12.9632V32.0346C13.8154 34.5987 11.7294 36.6847 9.16532 36.6847Z" fill="#377084"/>
</g>
<defs>
<clipPath id="clip0">
<rect width="17.8571" height="75" fill="white"/>
</clipPath>
</defs>
</svg>
