<svg width="36" height="50" viewBox="0 0 36 50" fill="none" xmlns="http://www.w3.org/2000/svg">
<path d="M28.5304 5.55949C24.8325 5.55949 21.8348 8.59147 21.8348 12.3316H10.2936L8.78434 5.43363C9.33246 5.19527 9.71715 4.64417 9.71715 4.00281C9.71715 3.14216 9.0276 2.4455 8.17714 2.4455C8.16143 2.4455 8.14634 2.44614 8.13063 2.44614L7.65165 0.258914C7.61268 0.0815711 7.43919 -0.0315719 7.26382 0.00783756C7.08782 0.047247 6.97719 0.223318 7.01616 0.400661L7.49828 2.60441C6.98788 2.85739 6.6365 3.38815 6.6365 4.00281C6.6365 4.85139 7.30845 5.54169 8.14446 5.55885L9.62601 12.3316H0L13.3277 25.7187V47.3322C9.86047 47.4219 7.18902 47.9819 7.18902 48.6601C7.18902 49.4006 10.3746 50 14.3045 50C18.2337 50 21.4193 49.4006 21.4193 48.6601C21.4193 47.9825 18.7479 47.4219 15.2807 47.3322V25.7187L23.8186 17.1433C25.0293 18.3555 26.6937 19.1036 28.5304 19.1036C32.2296 19.1036 35.2273 16.071 35.2273 12.3316C35.2273 8.59211 32.2296 5.55949 28.5304 5.55949ZM24.5478 16.4104L28.4336 12.5076L25.6465 17.5215L24.5478 16.4104ZM26.9408 18.0637L28.5009 12.4396L28.5474 12.3926L30.1201 18.0637H26.9408ZM31.4156 17.5215L28.5587 12.3818L28.5807 12.3595L33.6634 15.2479L31.4156 17.5215ZM28.592 12.3487L28.6077 12.3316H28.5304H22.8626V10.724L28.5304 12.3316L23.3994 9.41526L25.6471 7.14158L28.5304 12.3316L26.9414 6.59939H30.1214L28.5317 12.3316L31.4168 7.14158L33.6646 9.41526L28.5317 12.3316L34.2014 10.724V13.9397L28.592 12.3487Z" fill="#377084"/>
</svg>
