<svg width="48" height="60" viewBox="0 0 48 60" fill="none" xmlns="http://www.w3.org/2000/svg">
<path d="M47.1841 15.6C46.8961 13.152 45.6481 10.944 43.6801 9.40796C39.6481 6.28796 33.7921 7.00796 30.6721 11.04C30.5761 11.136 30.5281 11.28 30.5761 11.424L27.5521 9.69596C27.2641 9.55196 26.9761 9.50396 26.6881 9.59996C26.4001 9.69596 26.1601 9.88796 25.9681 10.128L24.1921 13.248C23.9521 12.72 23.5681 12.24 23.1361 11.76C22.6081 11.232 21.9361 10.848 21.1681 10.512L20.8801 6.57596C20.7841 5.18396 19.7761 3.98396 18.3841 3.74396L4.99207 0.911962C4.65607 0.863962 4.32007 1.05596 4.27207 1.39196L3.88807 3.26396C3.84007 3.59996 4.03207 3.93596 4.36807 3.98396L17.4721 6.67196C17.6161 6.71996 17.7601 6.81596 17.7601 7.00796L17.9521 9.69596C16.1761 9.45596 14.6401 9.55196 14.4961 9.55196C14.3041 9.55196 14.1601 9.64796 14.0641 9.79196C13.9681 9.93596 13.9201 10.128 13.9681 10.272C14.0161 10.416 14.4481 12.192 15.3121 14.064H14.8321C13.7281 14.064 12.8161 14.976 12.8161 16.032C12.8161 17.04 13.5841 17.856 14.5441 18C14.3521 18.48 14.1601 19.104 13.9201 19.824C12.9121 19.392 11.5201 19.248 10.4641 19.248C5.13607 19.248 0.768066 23.568 0.768066 28.944C0.768066 31.344 1.63207 33.648 3.26407 35.424C3.74407 35.952 4.27207 36.432 4.84807 36.864C5.18407 37.104 15.8881 44.928 17.0401 45.744C17.2801 46.08 17.5201 46.464 17.8081 46.8C17.9521 46.992 18.1441 47.088 18.3841 47.088H37.0081C37.2481 47.088 37.4401 46.992 37.5841 46.8C41.1841 41.808 42.8641 35.088 42.3361 27.36C42.1441 24.432 41.7121 21.888 41.2801 20.064L43.1041 21.504C43.2001 21.6 43.3441 21.648 43.4881 21.648C43.5361 21.648 43.5361 21.648 43.5841 21.648C43.7281 21.648 43.8721 21.552 43.9681 21.408C45.2161 19.824 45.7441 17.808 45.5041 15.792C45.2641 13.776 44.2081 12 42.6241 10.8C41.0401 9.55196 39.0721 9.02396 37.0561 9.26396H37.0081H36.9601C36.1441 9.35996 35.3761 9.59996 34.7041 9.93596L32.9761 10.464C35.8081 8.20796 39.9361 8.06396 42.9601 10.416C44.6401 11.76 45.7441 13.632 46.0321 15.792C46.3201 17.952 45.6961 20.064 44.4001 21.744C44.2081 21.984 44.2561 22.368 44.4961 22.608C44.5921 22.704 44.7361 22.752 44.8801 22.752C45.0721 22.752 45.2161 22.656 45.3601 22.512C46.8001 20.496 47.4721 18.048 47.1841 15.6ZM18.7201 45.648C10.2241 34.032 15.0241 20.592 16.0321 18.048H18.4801H18.6721H19.0561H19.6801H20.4001H21.0241H21.6001H23.8081H27.3121H28.5121H28.9921H29.8081H38.6881H39.2641C39.3121 18.192 39.3601 18.384 39.4081 18.624C40.4641 22.464 43.3921 35.904 36.6241 45.648H18.7201ZM14.2561 16.08C14.2561 15.792 14.4961 15.552 14.8321 15.552H16.0801H16.8001H17.5201H17.6641H18.3361H18.9601H19.5841H20.3041H20.9281H21.1681H21.5521H22.1281H22.5601H23.4721H23.5201H24.0961H24.1441H24.7681H25.3441H29.9521H30.6241H31.2961H31.6801H32.3041H32.9281H35.3761H37.1521H37.2481H37.2961H38.1121H38.4001H38.5921H39.2161H39.6481H39.8401C40.0321 15.552 40.2241 15.696 40.3201 15.84C40.3681 15.936 40.4161 15.984 40.4161 16.08C40.4161 16.368 40.1761 16.656 39.8401 16.656H39.7441H38.7841H38.7361H38.4961H37.7761H37.3441H37.2961H36.7681H35.6641H33.6001H33.2161H32.6401H32.0161H30.6241H29.9521H29.2801H27.2641H26.0641H24.8641H24.7681H24.1441H23.9521H23.5201H22.3201H21.5041H20.8801H20.2561H19.5361H18.9121H18.4801H18.2881H17.5681H16.7521H15.4561H14.6881C14.4961 16.608 14.2561 16.368 14.2561 16.08ZM16.4641 13.824L18.1921 13.584H18.2401L18.8161 14.016L18.9601 14.112H18.8641H18.2401H16.6081C16.5601 13.968 16.5121 13.872 16.4641 13.824ZM17.5681 10.848L17.7121 11.952L16.0801 10.752C16.5601 10.752 17.0401 10.8 17.5681 10.848ZM18.9121 6.91196C18.8641 6.23996 18.3361 5.66396 17.6641 5.51996L5.18407 2.92796L5.32807 2.20796L18.0481 4.84796C18.9121 5.03996 19.5361 5.75996 19.5841 6.62396L19.8241 10.08C19.5841 10.032 19.3441 9.93596 19.1041 9.88796L18.9121 6.91196ZM22.1761 12.528C22.6561 13.008 22.9921 13.536 23.1841 14.064H21.8401L21.5521 12.048C21.7921 12.192 21.9841 12.384 22.1761 12.528ZM18.8161 12.768L18.6241 11.52L18.5281 10.992H18.5761C18.7681 11.04 18.9601 11.088 19.2001 11.136C19.4401 11.184 19.6801 11.28 19.9201 11.328C20.1121 11.376 20.3041 11.472 20.4961 11.52L20.5921 12.24L20.8321 14.064H20.6881H20.4961L20.0641 13.728L19.2961 13.152L18.8161 12.768ZM30.9601 13.056L31.1041 13.44L30.7201 14.064H25.0081L26.9281 10.752L30.9601 13.056ZM17.1361 12.72L16.0321 12.864C15.8401 12.384 15.6481 11.904 15.5041 11.472L17.1361 12.72ZM36.5761 10.56L37.6801 14.064H37.0081H35.5201H33.5521H32.4961L32.3521 13.584L32.1601 13.008L31.9201 12.288L31.8721 12.144V12L32.0641 11.952L35.0881 11.04L36.5761 10.56ZM13.5841 38.544L7.53607 34.08C7.44007 33.984 7.29607 33.888 7.15207 33.792C7.10407 33.744 7.10407 33.744 7.05607 33.696C6.72007 33.456 6.38407 33.168 6.09607 32.832C5.13607 31.776 4.60807 30.384 4.60807 28.944C4.60807 25.728 7.24807 23.088 10.4641 23.088C11.2321 23.088 12.1921 23.28 13.0081 23.616C12.1921 27.6 11.9041 32.976 13.5841 38.544ZM5.66407 35.664C5.18407 35.328 4.70407 34.896 4.32007 34.464C2.97607 32.928 2.20807 31.008 2.20807 28.944C2.20807 24.384 5.90407 20.688 10.4641 20.688C11.5681 20.688 12.6241 20.88 13.2961 21.12L13.1521 22.128C12.2881 21.84 11.2801 21.648 10.4641 21.648C6.43207 21.648 3.16807 24.912 3.16807 28.944C3.16807 30.768 3.84007 32.496 5.04007 33.792C5.37607 34.176 5.71207 34.464 6.09607 34.752C6.14407 34.8 6.19207 34.848 6.28807 34.896C6.43207 34.992 6.57607 35.088 6.72007 35.184L14.4961 40.944C14.7361 41.472 14.9761 42.048 15.2161 42.576C11.6641 40.032 5.95207 35.856 5.66407 35.664ZM43.3441 20.16L40.8001 18.192C40.7521 18.096 40.7521 18 40.7041 17.904C41.1361 17.712 41.5201 17.328 41.7121 16.896L44.3521 16.56C44.4001 17.808 44.0641 19.056 43.3441 20.16ZM44.2081 15.312L41.8561 15.6C41.7121 14.976 41.2801 14.448 40.7041 14.208L42.3841 12.048C43.2481 12.96 43.9201 14.064 44.2081 15.312ZM41.3761 11.328L39.2641 14.064H38.9281L37.8241 10.32C39.0721 10.32 40.3201 10.656 41.3761 11.328Z" fill="#377084"/>
</svg>
