<svg width="38" height="70" viewBox="0 0 38 70" fill="none" xmlns="http://www.w3.org/2000/svg">
<g clip-path="url(#clip0)">
<path fill-rule="evenodd" clip-rule="evenodd" d="M13.0601 32.7327C12.8226 32.7327 12.6343 32.5411 12.6343 32.3091C12.6343 32.0771 12.8226 31.8855 13.0601 31.8855C13.2975 31.8855 13.4859 32.0771 13.4859 32.3091C13.4859 32.5411 13.2975 32.7327 13.0601 32.7327ZM13.0601 31.2412C12.4737 31.2412 12.0022 31.7219 12.0022 32.3091C12.0022 32.8963 12.4737 33.377 13.0601 33.377C13.6464 33.377 14.1179 32.8963 14.1179 32.3091C14.1179 31.7219 13.6464 31.2412 13.0601 31.2412ZM28.6139 9.185V12.2409H28.5593H27.7288C27.7701 11.2099 27.8113 10.179 27.8526 9.14241H28.5749C28.5994 9.14241 28.6139 9.1581 28.6139 9.185ZM28.5749 54.5432H11.3096C11.285 54.5432 11.2694 54.5287 11.2694 54.5018V51.5893H11.6228H28.6139V54.5018C28.6139 54.5219 28.5927 54.5432 28.5749 54.5432ZM5.4207 14.1201L7.38923 9.84951L8.8751 14.3341C8.427 14.4406 7.97444 14.5101 7.52522 14.5101C6.78396 14.5101 6.07725 14.3677 5.4207 14.1201ZM2.05547 10.997L6.31467 9.34412L4.35618 13.5923C3.36523 12.9726 2.56377 12.0716 2.05547 10.997ZM5.01273 2.67547L6.45401 7.02674L2.37204 5.04105C3.00295 4.0101 3.92034 3.1831 5.01273 2.67547ZM9.48372 2.46929L7.57092 6.61884L6.13521 2.28551C6.5822 2.17905 7.04591 2.1163 7.52522 2.1163C8.21298 2.1163 8.86507 2.25413 9.48372 2.46929ZM12.927 5.49937L8.62541 7.16793L10.5616 2.96683C11.5682 3.56298 12.393 4.43593 12.927 5.49937ZM11.3096 7.68564C10.6597 7.68564 10.118 8.11819 9.91733 8.70987L9.0423 8.28516L13.3595 6.60988C13.4564 6.95726 13.5166 7.31697 13.5534 7.68564H11.3096ZM22.4642 12.2409H22.0083L20.2371 11.592C19.7466 11.4127 19.2015 11.6727 19.0209 12.1725L18.9964 12.2409H18.6319H11.2694V9.185C11.2694 9.16483 11.2917 9.14241 11.3096 9.14241H26.1794C26.1382 10.179 26.0969 11.2099 26.0557 12.2409H22.4642ZM25.991 13.8601C25.9565 13.8164 25.9264 13.7693 25.884 13.7324H25.9966C25.9944 13.7749 25.9933 13.8175 25.991 13.8601ZM17.1995 26.1048L14.8465 21.655L18.2563 19.8317L19.0756 19.3936L19.2517 19.4586L19.799 20.494L21.5401 23.7852L17.1995 26.1048ZM20.1479 12.9905L24.7671 14.6804L23.0516 19.4182L21.3651 18.8008L20.1914 18.3716L20.1836 18.357C19.9484 17.9122 19.4367 17.7497 18.9953 17.9335L18.4324 17.7273L20.1479 12.9905ZM9.82035 13.4119L8.46936 9.3318L9.81701 9.98734L9.82035 9.98958V13.4119ZM1.44909 8.31318C1.44909 7.53661 1.59511 6.79701 1.85037 6.11345L6.06387 8.1619L1.65196 9.87416C1.52489 9.37438 1.44909 8.8533 1.44909 8.31318ZM28.6139 50.0978H11.6228H11.2694V13.7324H18.4558L17.0457 17.6264C16.8908 18.0556 17.0691 18.5106 17.4336 18.7481L13.8678 20.6543C13.4052 20.9019 13.2346 21.4734 13.4799 21.9351L16.2041 27.0876C16.4527 27.5571 17.0212 27.7241 17.4827 27.4776L22.5144 24.7881C22.9703 24.5438 23.1519 23.969 22.9101 23.5107L21.1299 20.1455L22.9613 20.8156C23.4507 20.9949 23.998 20.7361 24.1786 20.2363L25.9297 15.3998C25.8473 17.4718 25.7659 19.5146 25.6879 21.4913C25.6845 21.5575 25.6845 21.5575 25.6823 21.6225C25.1718 34.4398 24.8864 41.6912 24.8864 41.8626C24.8864 42.3265 25.2598 42.703 25.7224 42.703C26.1839 42.703 26.5584 42.3265 26.5584 41.8626C26.5584 41.7293 26.8683 33.8694 27.3532 21.6897C27.3554 21.6247 27.3554 21.6247 27.3576 21.5586C27.4591 19.0316 27.5639 16.4005 27.6698 13.7324H28.5593H28.6139V50.0978ZM37.2984 4.9077L28.5871 0.202327C27.5739 -0.344523 26.5339 0.269562 26.4882 1.41481C26.4759 1.72745 26.4759 1.72745 26.4191 3.13716C26.3444 5.01639 26.3032 6.03501 26.2374 7.68004V7.68564H15.0203C14.7049 3.73668 11.4567 0.659528 7.52522 0.659528C3.36746 0.659528 0 4.08854 0 8.31318C0 12.5378 3.36746 15.9668 7.52522 15.9668C8.29547 15.9668 9.07351 15.8335 9.82035 15.5903V54.5018C9.82035 55.3355 10.4869 56 11.3096 56H28.5749C29.3897 56 30.063 55.3288 30.063 54.5018V9.185C30.063 8.35016 29.3964 7.68564 28.5749 7.68564H27.9105C27.9752 6.07759 28.0153 5.05898 28.09 3.20439C28.1212 2.42222 28.1346 2.07932 28.1435 1.87089L36.507 6.388C36.9138 6.60763 37.421 6.45523 37.6395 6.04622C37.858 5.6372 37.7052 5.12733 37.2984 4.9077ZM17.1854 36.657L20.7033 35.8401L21.5349 39.4574L18.0158 40.2743L17.1854 36.657ZM21.9172 35.1476C21.8002 34.6366 21.2963 34.3228 20.7892 34.4405L16.4976 35.4367C15.9826 35.5555 15.6761 36.0608 15.792 36.5696L16.8019 40.9668C16.9201 41.4778 17.4239 41.7916 17.9311 41.6739L22.2215 40.6777C22.7365 40.5589 23.0442 40.0535 22.9271 39.5448L21.9172 35.1476ZM13.6433 16.447C13.8807 16.447 14.0691 16.6386 14.0691 16.8706C14.0691 17.1025 13.8807 17.2942 13.6433 17.2942C13.4058 17.2942 13.2175 17.1025 13.2175 16.8706C13.2175 16.6386 13.4058 16.447 13.6433 16.447ZM13.6433 17.9385C14.2296 17.9385 14.7011 17.4578 14.7011 16.8706C14.7011 16.2834 14.2296 15.8027 13.6433 15.8027C13.0569 15.8027 12.5854 16.2834 12.5854 16.8706C12.5854 17.4578 13.0569 17.9385 13.6433 17.9385ZM20.3314 46.4297C20.0939 46.4297 19.9055 46.2381 19.9055 46.0061C19.9055 45.7741 20.0939 45.5825 20.3314 45.5825C20.5688 45.5825 20.7572 45.7741 20.7572 46.0061C20.7572 46.2381 20.5688 46.4297 20.3314 46.4297ZM20.3314 44.9382C19.745 44.9382 19.2735 45.4189 19.2735 46.0061C19.2735 46.5933 19.745 47.074 20.3314 47.074C20.9177 47.074 21.3892 46.5933 21.3892 46.0061C21.3892 45.4189 20.9177 44.9382 20.3314 44.9382ZM22.8648 29.5118C22.6274 29.5118 22.439 29.3201 22.439 29.0882C22.439 28.8562 22.6274 28.6646 22.8648 28.6646C23.1022 28.6646 23.2906 28.8562 23.2906 29.0882C23.2906 29.3201 23.1022 29.5118 22.8648 29.5118ZM22.8648 28.0203C22.2785 28.0203 21.807 28.501 21.807 29.0882C21.807 29.6754 22.2785 30.1561 22.8648 30.1561C23.4511 30.1561 23.9226 29.6754 23.9226 29.0882C23.9226 28.501 23.4511 28.0203 22.8648 28.0203Z" fill="#377084"/>
</g>
<defs>
<clipPath id="clip0">
<rect width="37.7391" height="70" fill="white"/>
</clipPath>
</defs>
</svg>
