<svg width="37" height="50" viewBox="0 0 37 50" fill="none" xmlns="http://www.w3.org/2000/svg">
<g clip-path="url(#clip0)">
<path d="M18.3337 0C13.3615 0 8.86543 0.750466 5.54735 2.00762C2.22926 3.26475 0.000812595 5.07982 0.000812595 7.19245C-0.036243 7.21173 1.20368 31.8118 1.74598 44.0799C1.75576 44.235 1.83299 44.3846 1.95333 44.4815C6.49925 48.2132 12.6887 50.0692 18.7484 49.998C24.8082 49.9269 30.7652 47.93 34.766 43.8879C34.8596 43.7903 34.9161 43.6571 34.9215 43.5213C35.7234 31.0924 36.6065 7.22312 36.6667 7.19245C36.6667 5.07982 34.4382 3.26475 31.1201 2.00762C27.8021 0.750466 23.3059 0 18.3337 0V0ZM18.3337 0.960151C23.1334 0.960151 27.4642 1.71138 30.5499 2.88049C33.6356 4.04959 35.388 5.60274 35.388 7.19245C35.388 8.78214 33.6356 10.3179 30.5499 11.487C27.4642 12.6561 23.1334 13.4073 18.3337 13.4073C13.5341 13.4073 9.20331 12.6561 6.11755 11.487C3.03185 10.3179 1.27945 8.78214 1.27945 7.19245C1.27945 5.60274 3.03185 4.04959 6.11755 2.88049C9.20331 1.71138 13.5341 0.960151 18.3337 0.960151ZM35.3535 9.89837L34.1785 35.5957C25.5958 42.8967 11.0178 42.8097 2.4717 35.456L1.34857 9.9158C2.32585 10.8567 3.78203 11.691 5.54735 12.3599C8.86543 13.617 13.3615 14.3674 18.3337 14.3674C23.3059 14.3674 27.8021 13.617 31.1201 12.3599C32.9015 11.6849 34.3761 10.85 35.3535 9.89837ZM26.5412 16.6893C24.5918 17.3177 22.6326 17.9901 20.6837 18.6445C21.6617 18.695 22.609 18.7779 23.5174 18.8889L26.4548 17.8938L28.1482 19.7967C28.8922 20.0347 29.6931 20.3092 30.3426 20.5997L27.0423 16.8639C26.9182 16.7263 26.7229 16.6582 26.5412 16.6893V16.6893ZM13.2537 18.3652L4.95986 20.0411C4.61402 20.1481 4.51307 20.3466 4.51061 20.5997V21.6297C5.36756 20.9702 6.56502 20.4306 7.93183 19.9887C9.63944 19.4366 11.6972 19.0118 13.9622 18.7841C13.7944 18.4461 13.4886 18.3263 13.2537 18.3652ZM18.3337 19.0286C14.4232 19.0286 10.8874 19.5234 8.26013 20.3728C5.63287 21.2222 3.81945 22.4759 3.81945 23.9515C3.83445 23.9754 3.95768 29.1772 3.95768 31.7725C3.95824 31.8769 3.98857 31.9811 4.04408 32.0693C6.43863 35.6982 12.0041 37.3589 17.7117 37.3589C23.4193 37.3589 29.3556 35.6836 32.5716 32.1391C32.659 32.0389 32.7091 31.9061 32.7098 31.7725C32.8341 28.8203 32.848 23.9515 32.848 23.9515C32.848 22.4759 31.0346 21.2222 28.4073 20.3728C25.7801 19.5234 22.2443 19.0286 18.3337 19.0286ZM18.3337 19.9189C22.0575 19.9189 25.4269 20.4078 27.8026 21.1758C30.1783 21.9439 31.4657 22.959 31.4657 23.9515C31.4657 24.9442 30.1783 25.9418 27.8026 26.7098C25.4269 27.4779 22.0575 27.9668 18.3337 27.9668C14.61 27.9668 11.2579 27.4779 8.88217 26.7098C6.50645 25.9418 5.20177 24.9442 5.20177 23.9515C5.20177 22.959 6.50645 21.9439 8.88217 21.1758C11.2579 20.4078 14.61 19.9189 18.3337 19.9189ZM16.6058 20.4077C16.2299 20.4077 16.1252 20.4948 16.1221 20.5997V21.6996L15.2236 20.495C14.7823 20.5298 14.3484 20.5687 13.9276 20.6172L15.6901 23.0089L8.6403 24.4404L7.34438 22.3455C6.96988 22.5504 6.67192 22.7659 6.44588 22.974L7.82819 25.2085V25.7846C8.15133 25.9326 8.52529 26.0811 8.93404 26.2211V25.5227L16.1221 24.0738V27.4431C16.4875 27.4636 16.8523 27.4853 17.2279 27.4953C17.2296 25.7535 17.2279 24.0111 17.2279 22.2755L21.0466 27.4255C21.702 27.3799 22.3356 27.3086 22.9472 27.2334L30.4635 23.2182C30.2563 22.963 29.9445 22.7049 29.5132 22.4501L21.8241 26.5701L17.5907 20.8789L19.0595 20.3901C18.2601 20.3578 17.351 20.3764 16.6058 20.4076V20.4077ZM5.06353 25.9766C5.84287 26.5694 6.9565 27.0739 8.26013 27.4954C10.8874 28.3448 14.4232 28.8571 18.3337 28.8571C22.2443 28.8571 25.7801 28.3448 28.4073 27.4954C29.711 27.0739 30.8246 26.5694 31.6039 25.9766V26.6225C31.2722 26.8306 30.8929 27.0148 30.4981 27.1987V29.7125L22.2042 33.1691V29.1364C21.8399 29.1686 21.4726 29.2005 21.0984 29.2237V32.8374L17.2279 29.7998V29.2935C16.8535 29.2847 16.4885 29.2769 16.122 29.2586V29.7125L8.93401 32.6103V28.2111C8.53751 28.0998 8.17316 27.976 7.82816 27.8619V32.0866L5.61646 29.8521V26.9192C5.42782 26.8183 5.24062 26.7244 5.06353 26.6224V25.9766ZM31.6039 30.0966V31.4932C28.7034 34.574 23.13 36.2416 17.7117 36.2416C12.2888 36.2416 7.14363 34.5679 5.06353 31.563V30.8822L7.98367 33.8325C8.13733 33.9888 8.38708 34.0393 8.58844 33.9547L16.5713 30.7251L21.3057 34.4435C21.4604 34.5629 21.6796 34.5906 21.8586 34.5133L31.2584 30.6029C31.4576 30.5215 31.5994 30.3136 31.6039 30.0966V30.0966Z" fill="#377084"/>
</g>
<defs>
<clipPath id="clip0">
<rect width="36.6667" height="50" fill="white"/>
</clipPath>
</defs>
</svg>
